<svg width="45" height="45" viewBox="0 0 45 45" fill="none" xmlns="http://www.w3.org/2000/svg">
<path d="M8.5992 24.375C8.07304 24.375 7.6258 24.1943 7.2575 23.8329C6.88919 23.4716 6.70504 23.0327 6.70504 22.5164C6.70504 22.0002 6.88919 21.5613 7.2575 21.1999C7.6258 20.8385 8.07304 20.6579 8.5992 20.6579C9.12536 20.6579 9.57255 20.8385 9.94086 21.1999C10.3092 21.5613 10.4933 22.0002 10.4933 22.5164C10.4933 23.0327 10.3092 23.4716 9.94086 23.8329C9.57255 24.1943 9.12536 24.375 8.5992 24.375ZM19.1222 24.375C18.596 24.375 18.1488 24.1943 17.7805 23.8329C17.4122 23.4716 17.228 23.0327 17.228 22.5164C17.228 22.0002 17.4122 21.5613 17.7805 21.1999C18.1488 20.8385 18.596 20.6579 19.1222 20.6579C19.6483 20.6579 20.0955 20.8385 20.4638 21.1999C20.8321 21.5613 21.0163 22.0002 21.0163 22.5164C21.0163 23.0327 20.8321 23.4716 20.4638 23.8329C20.0955 24.1943 19.6483 24.375 19.1222 24.375ZM7.23119 7.33808L10.125 13.2236H17.7015L20.99 7.33808H7.23119ZM6.44197 5.78927H21.937C22.3404 5.78927 22.6473 5.96996 22.8578 6.33135C23.0682 6.69274 23.0682 7.05413 22.8578 7.41552L19.3063 13.6882C19.1134 14.0152 18.8635 14.2776 18.5565 14.4755C18.2496 14.6734 17.912 14.7724 17.5437 14.7724H9.57255L8.09934 17.457H21.0163V19.0058H8.33608C7.5995 19.0058 7.06896 18.7649 6.7445 18.283C6.42005 17.8011 6.42443 17.2591 6.75766 16.6568L8.44134 13.6107L4.4426 5.29881H2.39062V3.75H5.46859L6.44197 5.78927Z" fill="white"/>
</svg>
